<svg xmlns="http://www.w3.org/2000/svg" width="800" height="600" viewBox="0 0 800 600">
  <rect width="100%" height="100%" fill="#1f1f1f"/>
  <path d="M200,400 Q250,330 300,350 Q350,370 400,350 Q450,330 500,350 Q550,370 600,330 L620,400 Q570,420 500,430 Q400,450 300,430 Q250,420 200,400 Z" fill="#f5f5f5" stroke="#999" stroke-width="3"/>
  <path d="M200,400 L180,410 Q230,430 300,440 Q400,460 500,440 Q570,430 620,400 L600,390 Q570,410 500,430 Q400,450 300,430 Q250,420 200,400 Z" fill="#e0e0e0" stroke="#999" stroke-width="2"/>
  <path d="M290,350 L310,350 L310,380 L290,380 Z" fill="#333" stroke="#333" stroke-width="1"/>
  <path d="M330,345 L350,345 L350,375 L330,375 Z" fill="#333" stroke="#333" stroke-width="1"/>
  <path d="M370,350 L390,350 L390,380 L370,380 Z" fill="#333" stroke="#333" stroke-width="1"/>
  <path d="M420,345 L440,345 L440,375 L420,375 Z" fill="#333" stroke="#333" stroke-width="1"/>
  <line x1="370" y1="430" x2="420" y2="430" stroke="#ccc" stroke-width="5"/>
  <text x="400" y="300" font-family="monospace" font-size="24" fill="#ffffff" text-anchor="middle">URBAN STEP</text>
  <text x="400" y="500" font-family="monospace" font-size="12" fill="#999999" text-anchor="middle">SNKR_02.JPG</text>
</svg> 